<svg xmlns="http://www.w3.org/2000/svg" viewBox="0 0 22.28 32"><path fill="#3bbbbc" fill-rule="evenodd" d="M11.102 10.101c6.152 0 11.178 4.94 11.178 10.987C22.28 27.06 17.254 32 11.102 32 4.951 32 0 27.06 0 21.088 0 15.04 4.951 10.1 11.102 10.1zm-8.326 1.844s.675-.59 1.275-1.033 1.275-.81 1.275-.81.075-5.31 0-6.12c0-.738.675-1.401 1.5-1.401h8.552c.75 0 1.5.663 1.5 1.548v2.36l2.626.073v-2.58C19.504 2.286 18.08 0 15.378 0H7.126C4.201 0 2.701 2.138 2.701 4.055c0 1.991.075 7.89.075 7.89m8.326 2.58c3.676 0 6.677 2.95 6.677 6.563 0 3.539-3 6.488-6.677 6.488-3.6 0-6.601-2.95-6.601-6.488 0-3.613 3-6.563 6.601-6.563m0 2.876c1.276 0 2.326.958 2.326 2.212 0 .737-.45 1.475-.975 1.843v3.245H9.827v-3.245c-.6-.368-.975-1.106-.975-1.843 0-1.254 1.05-2.212 2.25-2.212m0-4.719c4.726 0 8.552 3.76 8.552 8.406 0 4.571-3.826 8.331-8.552 8.331s-8.551-3.76-8.551-8.331c0-4.646 3.825-8.406 8.551-8.406" clip-rule="evenodd"/></svg>
