<?xml version="1.0" encoding="UTF-8"?>
<svg xmlns="http://www.w3.org/2000/svg" viewBox="0 0 720.0 245.3" width="720.0" height="245.3" role="img" aria-label="Download the Android app">
  <title>Download the Android app</title>
  <defs>
    <clipPath id="edge">
      <rect x="0" y="0" width="720.0" height="245.3" rx="38.2" ry="38.2"/>
    </clipPath>
    <linearGradient id="sheen" x1="0" y1="0" x2="1" y2="0">
      <stop offset="0"    stop-color="#fff" stop-opacity="0"/>
      <stop offset="0.45" stop-color="#fff" stop-opacity="0.28"/>
      <stop offset="0.55" stop-color="#fff" stop-opacity="0.28"/>
      <stop offset="1"    stop-color="#fff" stop-opacity="0"/>
    </linearGradient>
  </defs>
  <style>
    @keyframes pass {
      0%       { transform: translateX(-226.6px); }
      15.51%   { transform: translateX(946.6px); }
      100%     { transform: translateX(946.6px); }
    }
    /* linear, not eased: an eased pass varies the speed inside each button, so
       the hand-off at the seam arrives early or late and the row stops reading
       as one band.

       The fill mode is not decoration, it is the second half of the delay. An
       animation that has not started yet leaves its element wherever the
       document put it, which for this band is x=0 - INSIDE the button, against
       its left edge. Without it the stagger that makes the row read as one band
       also parks a motionless band on every button but the first, for as long
       as that button's delay, every time the page loads. */
    .band { animation: pass 8.196s linear 5.408s infinite backwards; }
    @media (prefers-reduced-motion: reduce) {
      .band { animation: none; opacity: 0; }
    }
  </style>
  <rect width="720.0" height="245.3" rx="38.2" ry="38.2" fill="#3ddc84"/>
  <g transform="translate(71.0 66.65) scale(0.21875)" fill="#1b1b1b">
    <path d="M420.55,301.93a24,24,0,1,1,24-24,24,24,0,0,1-24,24m-265.1,0a24,24,0,1,1,24-24,24,24,0,0,1-24,24m273.7-144.48,47.94-83a10,10,0,1,0-17.27-10h0l-48.54,84.07a301.25,301.25,0,0,0-246.56,0L116.18,64.45a10,10,0,1,0-17.27,10h0l47.94,83C64.53,202.22,8.24,285.55,0,384H576c-8.24-98.45-64.54-181.78-146.85-226.55"/>
  </g>
  <text x="238" y="110" font-family="-apple-system, BlinkMacSystemFont, 'Segoe UI', Helvetica, Arial, sans-serif" font-size="82" font-weight="700" fill="#1b1b1b">Android</text>
  <text x="240" y="180" font-family="-apple-system, BlinkMacSystemFont, 'Segoe UI', Helvetica, Arial, sans-serif" font-size="50" font-weight="400" fill="#1b1b1b" fill-opacity="0.72">App</text>
  <g clip-path="url(#edge)">
    <g class="band">
      <!-- Taller than the canvas and started off its left edge, so the tilt
           never exposes a corner. skewX rather than rotate: the band stays
           axis-aligned for the translate, so the motion is one transform. -->
      <rect x="0" y="-60" width="121.8" height="365.3"
            fill="url(#sheen)" transform="skewX(-16)"/>
    </g>
  </g>
</svg>
